{"title":"The.Lady.in.the.Car.with.Glasses.&amp;.the.Gun.2015.BRRip-VYTO","uid":13086233,"size":377010396,"categoryP":"video","categoryS":"movies","magnet":"?xt=urn:btih:900e40bb7d6591d038bdb00895bb6b5607c8c780&amp;dn=The.Lady.in.the.Car.with.Glasses.%26amp%3B.the.Gun.2015.BRRip-VYTO&amp;tr=udp%3A%2F%2Ftracker.leechers-paradise.org%3A6969&amp;tr=udp%3A%2F%2Fzer0day.ch%3A1337&amp;tr=udp%3A%2F%2Fopen.demonii.com%3A1337&amp;tr=udp%3A%2F%2Ftracker.coppersurfer.tk%3A6969&amp;tr=udp%3A%2F%2Fexodus.desync.com%3A6969","seeders":2,"leechers":0,"uploader":"VYTOP2PDL","files":7,"time":1450974949,"description":"____    ____ ____    ____ .___________.  ______   \r\n     /   /      /   / |           | /  __    \r\n    /   /      /   /  `---|  |----`|  |  |  | \r\n        /     _    _/       |  |     |  |  |  | \r\n       /        |  |         |  |     |  `--'  | \r\n    __/         |__|         |__|      ______/  \r\n                                                  \r\nPresenting Small Encodes with quality for years!\r\n                                                                                                   \r\n                                                                                                   \r\n\r\nThe.Lady.in.the.Car.with.Glasses.and.the.Gun.2015.BRRip.480p.x264-VYTO\r\n\r\n\r\nGenre: Thriller    \nhttp://www.imdb.com/title/tt4159182/\r\n\r\n\r\nFormat                                   : MPEG-4\r\nFile size                                : 351 MiB\r\nDuration                                 : 1h 34mn\r\nOverall bit rate                         : 518 Kbps\r\n\r\nVideo\r\nFormat                                   : AVC\r\nBit rate                                 : 483 Kbps\r\nWidth                                    : 720 pixels\r\nHeight                                   : 304 pixels\r\nDisplay aspect ratio                     : 2.35:1\r\nFrame rate mode                          : Constant\r\nFrame rate                               : 24.000 fps\r\nBit depth                                : 8 bits\r\nStream size                              : 327 MiB (93%)\r\nWriting library                          : x264\r\n\r\nAudio\r\nFormat                                   : AAC\r\nBit rate mode                            : Variable\r\nBit rate                                 : 31.9 Kbps\r\nChannel(s)                               : 2 channels \r\nChannel positions                        : Front: L R\r\nSampling rate                            : 48.0 KHz \r\nStream size                              : 21.7 MiB (6%)\r\nLanguage                                 : French\r\n\r\nSubtitle                                 : Yes (English)\r\n\r\nScreen Shots: (Click to view)\r\n \nhttp://ititli.com/vz \nhttp://ititli.com/vI \nhttp://ititli.com/vO \nhttp://ititli.com/R9 \nhttp://ititli.com/RX \nhttp://ititli.com/Rq \nhttp://ititli.com/Rr \nhttp://ititli.com/R1\r\n\r\n----------------------------------------------------------------------------------------------------\r\n\r\n\r\nEncoder Notes: Looking For Early Access To Anything You Can Provide WEBDL, DVDScr, DVDR, BluRay,\r\nDirect Audio, Music Releases and Seedboxes. If You Got anything to offer please contact us.\r\n\r\nSupport us by donating BC - 1FgwdzPsd1y25Gea8wP1qni35uGCtmkRCD\r\n\r\nSend some love!\r\nFind us and join us!","torrent":{"xt":"urn:btih:900e40bb7d6591d038bdb00895bb6b5607c8c780","amp;dn":"The.Lady.in.the.Car.with.Glasses.%26amp%3B.the.Gun.2015.BRRip-VYTO","amp;tr":["udp%3A%2F%2Ftracker.leechers-paradise.org%3A6969","udp%3A%2F%2Fzer0day.ch%3A1337","udp%3A%2F%2Fopen.demonii.com%3A1337","udp%3A%2F%2Ftracker.coppersurfer.tk%3A6969","udp%3A%2F%2Fexodus.desync.com%3A6969"],"infoHash":"900e40bb7d6591d038bdb00895bb6b5607c8c780","infoHashBuffer":{"type":"Buffer","data":[144,14,64,187,125,101,145,208,56,189,176,8,149,187,107,86,7,200,199,128]},"announce":[],"urlList":[]}}